<?xml version="1.0" encoding="UTF-8" standalone="no"?>

<svg
   xmlns="http://www.w3.org/2000/svg"
   version="1.1"
   viewBox="0 0 480 220"
   >
  <g
     id="snail">
      <path
         d="m 0,210 c -1.08535,-4.73974 1.26915,-8.57234 7.59334,-14.05736 30.95891,-22.10159 191.84674,-87.52552 233.00837,-88.73929 l 8.2628,-3.47265 c 8.2177,-3.45373 16.7152,-6.76309 26.2627,-10.22801 2.75,-0.99802 5.9243,-2.39754 7.0539,-3.11006 1.1296,-0.71251 4.5046,-2.15405 7.5,-3.20341 6.3301,-2.21761 20.099,-7.63014 24.4474,-9.6102 8.329,-3.79262 19.7581,-6.72957 29.4987,-7.58033 18.2758,-1.59622 17.4047,-1.05521 31.2752,-19.42512 6.6461,-8.80187 13.9715,-18.2534 16.2788,-21.0034 2.3072,-2.75 4.5297,-6.125 4.9388,-7.5 1.7674,-5.94049 6.3187,-7.68761 10.3187,-3.96104 3.5676,3.3238 2.2497,7.39838 -2.9925,9.25118 -3.3508,1.18431 -14.9372,17.92501 -13.4413,19.42083 0.5655,0.56559 2.9119,-0.78279 18.6223,-10.70184 5.775,-3.64614 17.7,-11.05998 26.5,-16.47519 8.8,-5.41522 18.1408,-11.60524 20.7574,-13.75561 5.6627,-4.65387 9.3174,-4.82144 11.7111,-0.53696 2.0349,3.64247 0.6785,5.69921 -4.8317,7.32617 -5.0579,1.49345 -16.8257,9.31583 -46.5689,30.95574 -41.5537,30.23275 -46.6641,37.42201 -37.4459,52.67854 5.262,8.70895 6.7795,13.03525 6.8341,19.48308 0.063,7.4033 0.8658,8.86554 9.9254,18.07249 8.2091,8.3425 9.0883,9.87286 6.9185,12.04261 -2.1003,2.10035 -3.4315,1.35585 -10.3703,-5.8 -7.7418,-7.98389 -9.1506,-8.36574 -12.8707,-3.48849 -1.4731,1.93133 -4.2854,4.18299 -6.2496,5.00368 l -3.5712,1.49216 0.4634,10.41993 c 0.4868,10.94502 -0.119,13.57272 -3.1288,13.57272 -3.1476,0 -3.8716,-2.19008 -4.2274,-12.78777 -0.4026,-11.9921 0.1645,-11.33708 -11.8195,-13.653 l -8.7659,-1.69401 -5.88,2.52483 c -7.8768,3.38227 -17.7363,8.59884 -24.0563,12.72801 -2.847,1.86007 -8.4839,5.49964 -12.5265,8.08794 -10.7436,9.83239 -27.68439,18.75426 -37.28258,27.94568 -6.4283,6.33911 -8.68556,12.78796 -13.97891,16.48124 -5.29335,3.69328 -20.61611,8.44497 -40.03571,9.38391 -34.79607,0.52489 -50.37077,-7.45219 -85.88587,-14.34292 -9.15423,-1.77613 -42.68352,11.42475 -70.74335,14.85836 -28.05983,3.43361 -50.65019,-2.90006 -51.49799,-6.60244 z"
         id="path3901"
         style="fill:#ae8c6c;fill-opacity:1" />
      <path
         d="m 40,180 -4.77132,-7 c -26.67711,-39.13798 -19.38507,-95.51374 17.38359,-134.39505 29.74362,-29.18617 64.23507,-47.59339 119.26727,-33.05555 26.0733,6.98631 49.6154,24.9324 61.9225,39.65537 11.0367,14.15373 13.5406,18.76703 16.7142,30.79523 2.6447,10.02386 5.38191,13.92369 11.955,17.03328 0,0 -0.52396,0.95182 5.4957,2.5999 0.30538,19.50523 -50.46158,50.13567 -83.16577,56.52735 -12.57989,33.62368 -85.14358,84.51132 -144.80117,27.83947 z"
         id="path3020-2"
         style="fill:#333333;fill-opacity:1" />
  </g>
</svg>
